<?xml version="1.0" encoding="UTF-8" standalone="no"?>
<svg width="313px" height="313px" viewBox="0 0 313 313" version="1.1" xmlns="http://www.w3.org/2000/svg" xmlns:xlink="http://www.w3.org/1999/xlink">
    <!-- Generator: Sketch 39.1 (31720) - http://www.bohemiancoding.com/sketch -->
    <title>instagram</title>
    <desc>Created with Sketch.</desc>
    <defs></defs>
    <g id="Page-1" stroke="none" stroke-width="1" fill="none" fill-rule="evenodd">
        <g id="instagram" transform="translate(0.000000, -1.000000)" fill="currentColor">
            <g>
                <path d="M312.5,157.2 C312.5,179.2 311.9,201.2 312.6,223.2 C314,262.2 287.9,294.4 254,307 C242.7,311.2 231,313.5 218.9,313.5 C177.1,313.4 135.3,313.9 93.4,313.3 C58.3,312.8 30.5,298.1 11.6,268 C4.2,256.2 0.4,243.1 0.3,229.2 C0.1,181.4 -0.3,133.6 0.4,85.7 C0.8,54.9 16.5,32.2 42,15.9 C58.3,5.5 76.4,1.1 95.6,1.1 C136.8,1.1 177.9,0.8 219.1,1.2 C251.5,1.6 278.2,14.4 297.5,40.9 C307.3,54.4 312.5,69.7 312.5,86.6 L312.5,157.2 L312.5,157.2 L312.5,157.2 Z M23.4,157.1 L23.4,226.6 C23.4,235.6 25.3,244.1 29.5,252.1 C43.3,278.1 66,289.8 94.4,290.2 C135,290.8 175.7,290.3 216.3,290.4 C227.2,290.4 237.8,288.5 248,284.5 C273.4,274.5 289.4,251.4 289.4,224.2 L289.4,88.8 C289.4,75.9 285.8,64.2 278,53.8 C263.1,34 242.7,24.8 218.4,24.6 C177.1,24.2 135.8,24.4 94.5,24.5 C85.3,24.5 76.4,26.3 67.7,29.4 C42.3,38.6 22.3,62.1 23.3,92.7 C24,114.1 23.4,135.6 23.4,157.1 L23.4,157.1 L23.4,157.1 Z" id="Shape_1_"></path>
                <path d="M156.7,79.3 C197.4,79.3 230.4,111.8 230.3,151.9 C230.2,191.6 197.1,224.2 156.8,224.2 C116.1,224.2 83.4,191.8 83.4,151.5 C83.4,111.5 116.1,79.3 156.7,79.3 L156.7,79.3 L156.7,79.3 Z M206.7,151.6 C206.6,124.5 184.2,102.5 156.6,102.5 C129.3,102.5 106.5,124.9 106.5,151.8 C106.5,178.8 129,200.7 156.8,200.7 C184.7,200.6 206.8,178.9 206.7,151.6 L206.7,151.6 L206.7,151.6 Z" id="Shape_2_"></path>
                <path d="M222.3,73.4 C222.2,64.3 229,57.2 237.6,57.2 C246.1,57.2 253.3,64.6 253.2,73.3 C253.2,82.1 245.9,89.4 237.4,89.3 C229,89.2 222.3,82.2 222.3,73.4 L222.3,73.4 L222.3,73.4 Z" id="Shape_3_"></path>
            </g>
        </g>
    </g>
</svg>
